<svg xmlns="http://www.w3.org/2000/svg" xmlns:xlink="http://www.w3.org/1999/xlink" width="32" height="32" version="1.1" viewBox="0 0 32 32"><path fill="#444" d="M29.091 16.909h-17.454c-0.804 0-1.455-0.65-1.455-1.454s0.65-1.455 1.455-1.455h17.454c0.804 0 1.454 0.65 1.454 1.455s-0.65 1.454-1.454 1.454zM29.091 6.727h-17.454c-0.804 0-1.455-0.65-1.455-1.455s0.65-1.454 1.455-1.454h17.454c0.804 0 1.454 0.65 1.454 1.454s-0.65 1.455-1.454 1.455zM4.364 28.545c-1.606 0-2.909-1.303-2.909-2.909s1.303-2.909 2.909-2.909 2.909 1.303 2.909 2.909-1.303 2.909-2.909 2.909zM4.364 18.364c-1.606 0-2.909-1.303-2.909-2.909s1.303-2.909 2.909-2.909 2.909 1.303 2.909 2.909-1.303 2.909-2.909 2.909zM4.364 8.182c-1.606 0-2.909-1.303-2.909-2.909s1.303-2.909 2.909-2.909 2.909 1.303 2.909 2.909-1.303 2.909-2.909 2.909zM11.636 24.182h17.454c0.804 0 1.454 0.65 1.454 1.454s-0.65 1.454-1.454 1.454h-17.454c-0.804 0-1.455-0.65-1.455-1.454s0.65-1.454 1.455-1.454z"/></svg>